<svg width="22" height="22" viewBox="0 0 22 22" fill="none" xmlns="http://www.w3.org/2000/svg">
<g clip-path="url(#clip0_1369_1477)">
<path d="M15.8401 2.20086C16.8897 2.20318 17.8956 2.62114 18.6377 3.36328C19.3798 4.10542 19.7978 5.11132 19.8001 6.16086V15.8409C19.7978 16.8904 19.3798 17.8963 18.6377 18.6384C17.8956 19.3806 16.8897 19.7985 15.8401 19.8009H6.16013C5.11211 19.7962 4.10847 19.3772 3.36823 18.6353C2.62799 17.8934 2.21124 16.8889 2.20893 15.8409V6.16086C2.21124 5.11284 2.62799 4.10827 3.36823 3.36638C4.10847 2.62449 5.11211 2.2055 6.16013 2.20086H15.8401ZM15.8401 0.880859H6.16013C4.75978 0.880859 3.4168 1.43714 2.4266 2.42734C1.43641 3.41753 0.880127 4.76052 0.880127 6.16086L0.880127 15.8409C0.880127 17.2412 1.43641 18.5842 2.4266 19.5744C3.4168 20.5646 4.75978 21.1209 6.16013 21.1209H15.8401C17.2405 21.1209 18.5835 20.5646 19.5737 19.5744C20.5638 18.5842 21.1201 17.2412 21.1201 15.8409V6.16086C21.1201 4.76052 20.5638 3.41753 19.5737 2.42734C18.5835 1.43714 17.2405 0.880859 15.8401 0.880859V0.880859Z" fill="#192144"/>
<path d="M11.0086 7.11005C11.7796 7.11005 12.5333 7.33868 13.1744 7.76705C13.8155 8.19541 14.3152 8.80426 14.6102 9.5166C14.9053 10.2289 14.9825 11.0128 14.8321 11.769C14.6817 12.5252 14.3104 13.2198 13.7652 13.765C13.22 14.3102 12.5253 14.6815 11.7691 14.8319C11.0129 14.9824 10.2291 14.9052 9.51672 14.6101C8.80438 14.315 8.19554 13.8154 7.76717 13.1743C7.33881 12.5332 7.11018 11.7795 7.11018 11.0084C7.10902 10.4962 7.20906 9.98872 7.40456 9.51522C7.60006 9.04172 7.88717 8.61151 8.2494 8.24927C8.61163 7.88704 9.04185 7.59993 9.51535 7.40443C9.98885 7.20893 10.4963 7.10889 11.0086 7.11005ZM11.0086 5.79005C9.9761 5.78831 8.96631 6.09288 8.10699 6.66522C7.24768 7.23757 6.57745 8.05196 6.18113 9.00535C5.78481 9.95873 5.68022 11.0083 5.88057 12.0211C6.08093 13.034 6.57724 13.9646 7.3067 14.6953C8.03615 15.426 8.96597 15.9239 9.97848 16.1259C10.991 16.328 12.0407 16.2252 12.9947 15.8305C13.9488 15.4358 14.7643 14.7669 15.3381 13.9086C15.9119 13.0502 16.2182 12.0409 16.2182 11.0084C16.2193 10.3236 16.0854 9.64519 15.8242 9.01212C15.5629 8.37904 15.1793 7.8037 14.6954 7.31901C14.2116 6.83432 13.6369 6.4498 13.0042 6.18744C12.3716 5.92509 11.6935 5.79005 11.0086 5.79005Z" fill="#192144"/>
<path d="M16.4122 6.79492C17.0635 6.79492 17.5914 6.26698 17.5914 5.61572C17.5914 4.96447 17.0635 4.43652 16.4122 4.43652C15.761 4.43652 15.233 4.96447 15.233 5.61572C15.233 6.26698 15.761 6.79492 16.4122 6.79492Z" fill="#192144"/>
</g>
<defs>
<clipPath id="clip0_1369_1477">
<rect width="22" height="22" fill="white"/>
</clipPath>
</defs>
</svg>
